# xmcd CD database file
#
# Track frame offsets:
#	150
#	11032
#	22002
#	33188
#	49489
#	61835
#	73121
#	88741
#	101437
#	115799
#	128652
#	141266
#
# Disc length: 2101 seconds
#
# Revision: 0
# Processed by: cddbd v1.5.2PL0 Copyright (c) Steve Scherf et al.
# Submitted via: CDex 1.51
#
DISCID=a308330c
DTITLE=Giovanni Marradi - Winter Moods
DYEAR=2005
DGENRE=New Age
TTITLE0=Alfredo's Theme
TTITLE1=With You
TTITLE2=All I Needed Was You
TTITLE3=Matteo's Song
TTITLE4=Whispering Wind
TTITLE5=Falling Leaves
TTITLE6=Autumn Wind
TTITLE7=Sacristy
TTITLE8=Winter Breeze
TTITLE9=V'Al Kulam
TTITLE10=Snowfall
TTITLE11=A Chilly Wind From The North
EXTD=YEAR: 2005
EXTT0=
EXTT1=
EXTT2=
EXTT3=
EXTT4=
EXTT5=
EXTT6=
EXTT7=
EXTT8=
EXTT9=
EXTT10=
EXTT11=
PLAYORDER=
